<svg width="25" height="21" viewBox="0 0 25 21" fill="none" xmlns="http://www.w3.org/2000/svg">
<path d="M2.34375 0C1.0498 0 0 1.15922 0 2.58803C0 3.40218 0.34668 4.1678 0.9375 4.65845L11.5625 13.4577C12.1191 13.916 12.8809 13.916 13.4375 13.4577L24.0625 4.65845C24.6533 4.1678 25 3.40218 25 2.58803C25 1.15922 23.9502 0 22.6562 0H2.34375ZM0 6.03873V17.2535C0 19.1568 1.40137 20.7042 3.125 20.7042H21.875C23.5986 20.7042 25 19.1568 25 17.2535V6.03873L14.375 14.838C13.2617 15.76 11.7383 15.76 10.625 14.838L0 6.03873Z" fill="white"/>
</svg>
