<svg width="25" height="25" viewBox="0 0 25 25" fill="none" xmlns="http://www.w3.org/2000/svg">
<path d="M5.86688 0.551329L5.86709 0.551273C6.55234 0.366703 7.26076 0.694041 7.55894 1.30925L7.59084 1.38474L9.54388 6.00602L9.54397 6.00622C9.78811 6.58321 9.62109 7.25045 9.12431 7.65087C9.1243 7.65088 9.1243 7.65088 9.12429 7.65089L6.71719 9.59085L6.40883 9.83936L6.58014 10.1964C8.25656 13.6907 11.1248 16.5177 14.6659 18.1691L15.0154 18.3321L15.2618 18.0356L17.2344 15.6624L17.2361 15.6602C17.6362 15.1734 18.324 15.0015 18.9203 15.2468L18.9205 15.2469L23.6078 17.1724L23.6088 17.1728C24.2855 17.449 24.6389 18.1719 24.4487 18.8581L24.4486 18.8583L23.2772 23.0931C23.2771 23.0934 23.277 23.0937 23.277 23.094C23.1034 23.7128 22.5308 24.1479 21.874 24.1479C10.0639 24.1479 0.5 14.7085 0.5 3.08194C0.5 2.44718 0.933667 1.88007 1.57096 1.70644C1.57117 1.70639 1.57138 1.70633 1.57159 1.70627L5.86688 0.551329Z" fill="#FAFAFA" stroke="black"/>
</svg>
