<svg width="16" height="19" viewBox="0 0 16 19" fill="none" xmlns="http://www.w3.org/2000/svg">
<path d="M4.63543 0.656836L4.38857 1.1875H1.09714C0.490286 1.1875 0 1.71816 0 2.375C0 3.03184 0.490286 3.5625 1.09714 3.5625H14.2629C14.8697 3.5625 15.36 3.03184 15.36 2.375C15.36 1.71816 14.8697 1.1875 14.2629 1.1875H10.9714L10.7246 0.656836C10.5394 0.252344 10.1589 0 9.744 0H5.616C5.20114 0 4.82057 0.252344 4.63543 0.656836ZM14.2629 4.75H1.09714L1.824 17.3301C1.87886 18.2689 2.59886 19 3.46629 19H11.8937C12.7611 19 13.4811 18.2689 13.536 17.3301L14.2629 4.75Z" fill="#F9AA01"/>
</svg>
